<svg width="186" height="40" viewBox="0 0 186 40" fill="none" xmlns="http://www.w3.org/2000/svg">
<g id="Group">
<g id="Group_2">
<g id="Group_3">
<path id="Vector" d="M82.1589 3.68384V6.0187H74.6787V6.53324C74.6767 6.54143 74.6767 6.55168 74.6767 6.55988V16.2253H72.3418V3.68384H82.1589Z" fill="#F2AE31"/>
<path id="Vector_2" d="M84.4937 3.68384V6.0187H92.8308V8.7861H82.1589V16.2253H92.5704V13.8904H84.4835V10.9549H92.5704V13.8904H94.9156V3.68384H84.4937Z" fill="#F2AE31"/>
<path id="Vector_3" d="M112.391 9.56299V11.8979H119.422V9.56299H112.391Z" fill="#F2AE31"/>
<path id="Vector_4" d="M140.639 3.68384V16.2253H138.325V6.0187H132.421V16.2253H130.063V6.0187H124.16V16.2253H121.804V3.68384H140.639Z" fill="#F2AE31"/>
<path id="Vector_5" d="M145.348 3.68384V6.0187H153.435V8.7861H143.013V16.2253H153.32V13.8904H145.348V10.9549H153.435V13.8904H155.771V3.68384H145.348Z" fill="#F2AE31"/>
<path id="Vector_6" d="M186 11.121V3.68384H173.241V16.2253H186V13.8904H175.576V11.121H186ZM175.566 8.9378V6.0187H183.653V8.9378H175.566Z" fill="#F2AE31"/>
<g id="Group_4">
<path id="Vector_7" d="M57.2052 0.97998C57.0473 0.97998 56.8895 0.979981 56.7317 0.982031V3.31485H67.6086V8.43966H56.7317V3.31485H54.4009C54.3988 3.47269 54.3988 3.63258 54.3968 3.79043V16.2253H56.7317V10.7766H67.6086V16.2253H69.9639V0.97998H57.2052Z" fill="#F2AE31"/>
</g>
<g id="Group_5">
<path id="Vector_8" d="M99.6161 3.68383V0.97998H97.2792V16.2253H107.703V13.8904H99.6161V6.0187H107.703V13.8904H110.038V3.68383H99.6161Z" fill="#F2AE31"/>
</g>
<g id="Group_6">
<path id="Vector_9" d="M168.553 0.97998V3.68383H158.131V16.2253H168.553V13.8904H160.466V6.0187H168.553V13.8904H170.888V0.97998H168.553Z" fill="#F2AE31"/>
</g>
</g>
<path id="Vector_10" d="M123.709 4.49341H123.701V4.5041H123.709V4.49341Z" fill="#F2AE31"/>
<g id="Group_7">
<path id="Vector_11" d="M132.388 37.1775H130.051V39.5144H132.388V37.1775Z" fill="#F2AE31"/>
<path id="Vector_12" d="M72.3456 37.1775H70.0087V39.5144H72.3456V37.1775Z" fill="#F2AE31"/>
<path id="Vector_13" d="M67.5877 37.1775H65.2508V39.5144H67.5877V37.1775Z" fill="#F2AE31"/>
<path id="Vector_14" d="M177.913 26.8949V32.4912H185.956V34.8384H145.36V39.5184H143.013V24.5498H145.36V32.4912H175.565V24.5498H186V26.8949H177.913Z" fill="#F2AE31"/>
<path id="Vector_15" d="M110.038 24.5498V26.8949H110.035V32.4912H107.688V26.8949H101.961V32.4912H107.688V34.2911H107.703V34.8384H65.2139V32.4912H67.6246V24.5498H69.9717V32.4912H99.6157V24.5498H110.038Z" fill="#F2AE31"/>
<path id="Vector_16" d="M107.703 32.4912H107.688V34.291H107.703V32.4912Z" fill="#F2AE31"/>
<path id="Vector_17" d="M107.703 32.4912H107.688V34.291H107.703V32.4912Z" fill="#F2AE31"/>
<path id="Vector_18" d="M62.8708 32.4912H54.3964V34.8384H62.8708V32.4912Z" fill="#F2AE31"/>
<path id="Vector_19" d="M65.2141 32.4912H65.21V34.8384H65.2141V32.4912Z" fill="#F2AE31"/>
<path id="Vector_20" d="M140.637 24.5498H138.292V32.4912H140.637V24.5498Z" fill="#F2AE31"/>
<path id="Vector_21" d="M65.2137 24.5498V34.8384H65.2096V32.4912H62.8707V34.8384H62.8666V24.5498H65.2137Z" fill="#F2AE31"/>
<path id="Vector_22" d="M138.292 32.4912V34.8384H121.802V24.5498H124.149V32.4912H138.292Z" fill="#F2AE31"/>
<path id="Vector_23" d="M112.391 29.0579V31.3948H119.422V29.0579H112.391Z" fill="#F2AE31"/>
</g>
</g>
<g id="Group_8">
<g id="Group_9">
<path id="Vector_24" d="M56.3953 26.2985C56.4999 26.2555 56.5737 26.196 56.6208 26.1181C56.6659 26.0423 56.6885 25.948 56.6885 25.8393C56.6885 25.7799 56.6803 25.7225 56.6618 25.6631C56.6454 25.6057 56.6126 25.5544 56.5655 25.5093C56.5183 25.4642 56.4527 25.4253 56.3707 25.3966C56.2887 25.3679 56.1842 25.3535 56.055 25.3535H55.4933V27.0714H55.7127V26.36H56.0509C56.0714 26.36 56.0919 26.358 56.1165 26.358C56.1411 26.358 56.1616 26.3559 56.1842 26.3518L56.5081 27.0714H56.7561L56.3953 26.2985ZM56.2682 26.1468C56.217 26.1612 56.1555 26.1694 56.0776 26.1694H55.7127V25.5421H56.0489C56.1309 25.5421 56.1985 25.5483 56.2498 25.5626C56.3031 25.5749 56.3461 25.5954 56.3769 25.6221C56.4076 25.6487 56.4302 25.6795 56.4425 25.7164C56.4568 25.7532 56.463 25.7963 56.463 25.8434C56.463 25.8947 56.4568 25.9398 56.4466 25.9787C56.4343 26.0197 56.4138 26.0525 56.3851 26.0812C56.3564 26.1099 56.3174 26.1304 56.2682 26.1468Z" fill="#F2AE31"/>
</g>
<g id="Group_10">
<path id="Vector_25" d="M56.0593 24.5498C55.1409 24.5498 54.3968 25.296 54.3968 26.2123C54.3968 27.1286 55.1409 27.8748 56.0593 27.8748C56.9756 27.8748 57.7218 27.1286 57.7218 26.2123C57.7218 25.296 56.9756 24.5498 56.0593 24.5498ZM56.0593 27.6964C55.2414 27.6964 54.5751 27.0302 54.5751 26.2123C54.5751 25.3944 55.2414 24.7282 56.0593 24.7282C56.8772 24.7282 57.5434 25.3944 57.5434 26.2123C57.5434 27.0302 56.8772 27.6964 56.0593 27.6964Z" fill="#F2AE31"/>
</g>
</g>
<g id="Group_11">
<path id="Vector_26" d="M43.0464 0H0V39.5144H43.0464V0Z" fill="#F2AE31"/>
<g id="Group_12">
<g id="Group_13">
<g id="Group_14">
<path id="Vector_27" d="M17.9043 24.4822H7.67517V28.1023H17.9043V24.4822Z" fill="white"/>
<path id="Vector_28" d="M21.5243 12.3159V24.4822H17.9041V18.1726L7.67499 24.4822V20.86L15.6512 15.9402H9.09354V12.3159H21.5243Z" fill="white"/>
</g>
<g id="Group_15">
<path id="Vector_29" d="M24.3637 15.9382H27.9367V28.1004H24.3616C24.3616 28.1025 24.3637 16.1002 24.3637 15.9382Z" fill="white"/>
<path id="Vector_30" d="M36.7923 15.9362H30.2162L30.2182 15.9383H27.9366V12.3202C31.6081 12.3181 36.7923 12.3181 36.7923 12.3181V15.9362Z" fill="white"/>
</g>
</g>
</g>
</g>
</g>
</svg>
