<svg width="42" height="43" viewBox="0 0 42 43" fill="none" xmlns="http://www.w3.org/2000/svg">
<g clip-path="url(#clip0_936_9670)">
<path d="M39 21.9004C39 11.9593 30.9411 3.90039 21 3.90039C11.0589 3.90039 3 11.9593 3 21.9004C3 31.8415 11.0589 39.9004 21 39.9004C30.9411 39.9004 39 31.8415 39 21.9004Z" fill="#F2AE31"/>
<path d="M13.5 14.4004H14.4797C14.6642 14.4004 14.7564 14.4004 14.8307 14.4343C14.8961 14.4642 14.9515 14.5123 14.9903 14.5728C15.0344 14.6415 15.0475 14.7329 15.0736 14.9156L15.4285 17.4004M15.4285 17.4004L16.2175 23.1989C16.3176 23.9348 16.3676 24.3027 16.5436 24.5796C16.6986 24.8237 16.9208 25.0177 17.1835 25.1384C17.4817 25.2754 17.8529 25.2754 18.5956 25.2754H25.014C25.7209 25.2754 26.0744 25.2754 26.3633 25.1482C26.6179 25.0361 26.8363 24.8552 26.9942 24.626C27.1732 24.3661 27.2393 24.0189 27.3716 23.3245L28.3643 18.1127C28.4109 17.8682 28.4341 17.7461 28.4004 17.6505C28.3708 17.5667 28.3124 17.4962 28.2356 17.4514C28.1481 17.4004 28.0237 17.4004 27.7749 17.4004H15.4285ZM19.5 28.6504C19.5 29.0646 19.1642 29.4004 18.75 29.4004C18.3358 29.4004 18 29.0646 18 28.6504C18 28.2362 18.3358 27.9004 18.75 27.9004C19.1642 27.9004 19.5 28.2362 19.5 28.6504ZM25.5 28.6504C25.5 29.0646 25.1642 29.4004 24.75 29.4004C24.3358 29.4004 24 29.0646 24 28.6504C24 28.2362 24.3358 27.9004 24.75 27.9004C25.1642 27.9004 25.5 28.2362 25.5 28.6504Z" stroke="#0F1E3B" stroke-width="1.5" stroke-linecap="round" stroke-linejoin="round"/>
<path d="M39 21.9004C39 11.9593 30.9411 3.90039 21 3.90039C11.0589 3.90039 3 11.9593 3 21.9004C3 31.8415 11.0589 39.9004 21 39.9004C30.9411 39.9004 39 31.8415 39 21.9004Z" stroke="#FFF4ED" stroke-width="6"/>
</g>
<defs>
<clipPath id="clip0_936_9670">
<rect width="42" height="42" fill="white" transform="translate(0 0.900391)"/>
</clipPath>
</defs>
</svg>
