<svg width="42" height="43" viewBox="0 0 42 43" fill="none" xmlns="http://www.w3.org/2000/svg">
<g clip-path="url(#clip0_936_9679)">
<g clip-path="url(#clip1_936_9679)">
<g clip-path="url(#clip2_936_9679)">
<path d="M39 21.9004C39 11.9593 30.9411 3.90039 21 3.90039C11.0589 3.90039 3 11.9593 3 21.9004C3 31.8415 11.0589 39.9004 21 39.9004C30.9411 39.9004 39 31.8415 39 21.9004Z" fill="#F2AE31"/>
<path d="M27.75 21.1504L22.0544 15.4548C21.6652 15.0656 21.4707 14.8711 21.2437 14.732C21.0423 14.6086 20.8229 14.5177 20.5933 14.4626C20.3343 14.4004 20.0591 14.4004 19.5089 14.4004H16.5M14.25 19.4254V20.9063C14.25 21.2732 14.25 21.4566 14.2915 21.6293C14.3282 21.7823 14.3888 21.9286 14.471 22.0628C14.5638 22.2142 14.6935 22.3439 14.953 22.6034L20.803 28.4534C21.397 29.0474 21.694 29.3444 22.0365 29.4557C22.3378 29.5535 22.6622 29.5535 22.9635 29.4557C23.306 29.3444 23.603 29.0474 24.197 28.4534L26.053 26.5974C26.647 26.0034 26.944 25.7064 27.0553 25.3639C27.1531 25.0626 27.1531 24.7382 27.0553 24.4369C26.944 24.0944 26.647 23.7974 26.053 23.2034L20.578 17.7284C20.3185 17.4689 20.1888 17.3392 20.0375 17.2464C19.9032 17.1642 19.7569 17.1036 19.6039 17.0669C19.4312 17.0254 19.2478 17.0254 18.8809 17.0254H16.65C15.8099 17.0254 15.3898 17.0254 15.069 17.1889C14.7868 17.3327 14.5573 17.5622 14.4135 17.8444C14.25 18.1652 14.25 18.5853 14.25 19.4254Z" stroke="#0F1E3B" stroke-width="1.5" stroke-linecap="round" stroke-linejoin="round"/>
<path d="M39 21.9004C39 11.9593 30.9411 3.90039 21 3.90039C11.0589 3.90039 3 11.9593 3 21.9004C3 31.8415 11.0589 39.9004 21 39.9004C30.9411 39.9004 39 31.8415 39 21.9004Z" stroke="#FFF4ED" stroke-width="6"/>
</g>
</g>
</g>
<defs>
<clipPath id="clip0_936_9679">
<rect width="42" height="42" fill="white" transform="translate(0 0.900391)"/>
</clipPath>
<clipPath id="clip1_936_9679">
<rect width="42" height="42" fill="white" transform="translate(0 0.900391)"/>
</clipPath>
<clipPath id="clip2_936_9679">
<rect width="42" height="42" fill="white" transform="translate(0 0.900391)"/>
</clipPath>
</defs>
</svg>
