<svg width="42" height="43" viewBox="0 0 42 43" fill="none"
    xmlns="http://www.w3.org/2000/svg">
    <g clip-path="url(#clip0_936_9670)">
        <path d="M39 21.9004C39 11.9593 30.9411 3.90039 21 3.90039C11.0589 3.90039 3 11.9593 3 21.9004C3 31.8415 11.0589 39.9004 21 39.9004C30.9411 39.9004 39 31.8415 39 21.9004Z" fill="#F2AE31"/>
        <svg width="30" height="40" viewBox="-9 -3.36 30.72 30.72" fill="none"
            xmlns="http://www.w3.org/2000/svg">
            <g clip-path="url(#clip0_936_9670)">
                <rect x="-3.36" y="-3.36" width="30.72" height="30.72" rx="15.36" fill="#F2AE31" strokewidth="0"></rect>
                <path d="M16 7C16 9.20914 14.2091 11 12 11C9.79086 11 8 9.20914 8 7C8 4.79086 9.79086 3 12 3C14.2091 3 16 4.79086 16 7Z" stroke="#000000" stroke-width="1.152" stroke-linecap="round" stroke-linejoin="round"></path>
                <path d="M12 14C8.13401 14 5 17.134 5 21H19C19 17.134 15.866 14 12 14Z" stroke="#000000" stroke-width="1.152" stroke-linecap="round" stroke-linejoin="round"></path>
            </g>
        </svg>



        <path d="M39 21.9004C39 11.9593 30.9411 3.90039 21 3.90039C11.0589 3.90039 3 11.9593 3 21.9004C3 31.8415 11.0589 39.9004 21 39.9004C30.9411 39.9004 39 31.8415 39 21.9004Z" stroke="#FFF4ED" stroke-width="6"/>
    </g>
    <defs>
        <clipPath id="clip0_936_9670">
            <rect width="42" height="42" fill="white" transform="translate(0 0.900391)"/>
        </clipPath>
    </defs>
</svg>


