<svg width="24" height="25" viewBox="0 0 24 25" fill="none" xmlns="http://www.w3.org/2000/svg">
<g id="SVG">
<path id="Vector" d="M10.117 18.1464H2.88281" stroke="#687799" stroke-width="1.5" stroke-linecap="round" stroke-linejoin="round"/>
<path id="Vector_2" fill-rule="evenodd" clip-rule="evenodd" d="M21.1194 18.1465C21.1194 19.7371 19.83 21.0265 18.2394 21.0265C16.6488 21.0265 15.3594 19.7371 15.3594 18.1465C15.3594 16.5547 16.6488 15.2665 18.2394 15.2665C19.83 15.2665 21.1194 16.5547 21.1194 18.1465Z" stroke="#687799" stroke-width="1.5" stroke-linecap="round" stroke-linejoin="round"/>
<path id="Vector_3" d="M13.8828 6.42175H21.1181" stroke="#687799" stroke-width="1.5" stroke-linecap="round" stroke-linejoin="round"/>
<path id="Vector_4" fill-rule="evenodd" clip-rule="evenodd" d="M2.88281 6.42187C2.88281 8.01364 4.17222 9.30187 5.76281 9.30187C7.3534 9.30187 8.64281 8.01364 8.64281 6.42187C8.64281 4.83128 7.3534 3.54187 5.76281 3.54187C4.17222 3.54187 2.88281 4.83128 2.88281 6.42187Z" stroke="#687799" stroke-width="1.5" stroke-linecap="round" stroke-linejoin="round"/>
</g>
</svg>
